<svg width="250" height="143" viewBox="0 0 250 143" fill="none" xmlns="http://www.w3.org/2000/svg">
<g clip-path="url(#clip0_539_3049)">
<path d="M180.047 0H69.9395C68.6295 0 67.3731 0.516798 66.4467 1.43668C65.5204 2.35656 65 3.60417 65 4.90508V138.121C65 139.423 65.52 140.672 66.4459 141.594C67.3719 142.516 68.6283 143.035 69.9395 143.039H180.047C181.359 143.035 182.615 142.516 183.541 141.594C184.467 140.672 184.987 139.423 184.987 138.121V4.94401C184.987 3.6431 184.466 2.39549 183.54 1.47561C182.614 0.555726 181.357 0.0389276 180.047 0.0389276" fill="black"/>
<path d="M158.643 85.8388C158.643 86.0556 158.556 86.2635 158.401 86.4168C158.247 86.5701 158.038 86.6563 157.819 86.6563H136.401C136.183 86.6563 135.974 86.5701 135.819 86.4168C135.665 86.2635 135.578 86.0556 135.578 85.8388V72.2006C135.578 71.9838 135.665 71.7758 135.819 71.6225C135.974 71.4692 136.183 71.3831 136.401 71.3831H157.819C158.038 71.3831 158.247 71.4692 158.401 71.6225C158.556 71.7758 158.643 71.9838 158.643 72.2006V85.8388ZM165.503 63.7789H128.705C128.489 63.7789 128.281 63.8632 128.127 64.0137C127.973 64.1643 127.885 64.3689 127.881 64.5834V101.138C127.885 101.353 127.973 101.557 128.127 101.708C128.281 101.858 128.489 101.943 128.705 101.942H134.755C134.971 101.943 135.178 101.858 135.332 101.708C135.486 101.557 135.575 101.353 135.578 101.138V95.1299C135.578 94.9131 135.665 94.7051 135.819 94.5518C135.974 94.3985 136.183 94.3124 136.401 94.3124H157.819C158.038 94.3124 158.247 94.3985 158.401 94.5518C158.556 94.7051 158.643 94.9131 158.643 95.1299V101.138C158.646 101.353 158.734 101.557 158.888 101.708C159.042 101.858 159.25 101.943 159.466 101.942H165.503C165.719 101.943 165.927 101.858 166.081 101.708C166.235 101.557 166.323 101.353 166.326 101.138V64.5575C166.323 64.3429 166.235 64.1383 166.081 63.9878C165.927 63.8372 165.719 63.7529 165.503 63.7529" fill="white"/>
<path d="M158.643 42.0042C158.643 42.2223 158.556 42.4316 158.402 42.587C158.248 42.7423 158.039 42.8313 157.819 42.8347H136.401C136.182 42.8313 135.972 42.7423 135.818 42.587C135.664 42.4316 135.578 42.2223 135.578 42.0042V28.379C135.578 28.1622 135.665 27.9543 135.819 27.8009C135.974 27.6476 136.183 27.5615 136.401 27.5615H157.819C158.038 27.5615 158.247 27.6476 158.401 27.8009C158.556 27.9543 158.643 28.1622 158.643 28.379V42.0042ZM165.503 19.9443H128.705C128.487 19.9477 128.28 20.0349 128.126 20.1875C127.973 20.3401 127.885 20.5461 127.881 20.7619V57.3034C127.881 57.5202 127.968 57.7282 128.122 57.8815C128.277 58.0348 128.486 58.1209 128.705 58.1209H134.755C134.973 58.1209 135.183 58.0348 135.337 57.8815C135.491 57.7282 135.578 57.5202 135.578 57.3034V51.3083C135.578 51.0915 135.665 50.8836 135.819 50.7303C135.974 50.577 136.183 50.4908 136.401 50.4908H157.819C158.038 50.4908 158.247 50.577 158.401 50.7303C158.556 50.8836 158.643 51.0915 158.643 51.3083V57.4981C158.618 57.6233 158.642 57.7529 158.71 57.8612C158.778 57.9695 158.885 58.0484 159.008 58.082C159.325 58.116 159.645 58.0851 159.949 57.9912L165.176 56.5378C165.491 56.4539 165.797 56.341 166.091 56.2004C166.173 56.1315 166.237 56.0431 166.276 55.9433C166.315 55.8434 166.328 55.7355 166.313 55.6295V20.7619C166.313 20.545 166.226 20.3371 166.072 20.1838C165.918 20.0305 165.708 19.9443 165.49 19.9443" fill="white"/>
<path d="M122.105 20.7621V57.2908C122.105 57.511 122.017 57.7222 121.861 57.878C121.704 58.0337 121.491 58.1212 121.269 58.1212H84.4838C84.262 58.1212 84.0492 58.0337 83.8924 57.878C83.7356 57.7222 83.6475 57.511 83.6475 57.2908V51.2957C83.6509 51.0777 83.7406 50.8697 83.897 50.7168C84.0535 50.5638 84.2642 50.4781 84.4838 50.4782H113.585C113.804 50.4782 114.013 50.392 114.168 50.2386C114.322 50.0853 114.409 49.8775 114.409 49.6606V43.6655C114.409 43.4487 114.322 43.2408 114.168 43.0874C114.013 42.9341 113.804 42.848 113.585 42.848H84.4838C84.262 42.848 84.0492 42.7605 83.8924 42.6048C83.7356 42.449 83.6475 42.2378 83.6475 42.0175V20.7621C83.6475 20.5419 83.7356 20.3307 83.8924 20.1749C84.0492 20.0192 84.262 19.9316 84.4838 19.9316H90.521C90.7406 19.935 90.95 20.0241 91.104 20.1795C91.258 20.3348 91.3443 20.5441 91.3443 20.7621V34.3874C91.3443 34.6042 91.431 34.8121 91.5854 34.9654C91.7398 35.1187 91.9492 35.2049 92.1676 35.2049H113.585C113.804 35.2049 114.013 35.1187 114.168 34.9654C114.322 34.8121 114.409 34.6042 114.409 34.3874V20.7621C114.409 20.5441 114.495 20.3348 114.649 20.1795C114.803 20.0241 115.012 19.935 115.232 19.9316H121.269C121.491 19.9316 121.704 20.0192 121.861 20.1749C122.017 20.3307 122.105 20.5419 122.105 20.7621Z" fill="white"/>
<path d="M122.105 64.5704V101.112C122.104 101.219 122.081 101.325 122.038 101.424C121.995 101.522 121.933 101.612 121.855 101.686C121.778 101.761 121.686 101.82 121.585 101.859C121.485 101.899 121.377 101.918 121.269 101.917H115.232C115.016 101.917 114.808 101.832 114.654 101.682C114.5 101.531 114.412 101.327 114.409 101.112V72.2006C114.409 71.9838 114.322 71.7758 114.168 71.6225C114.013 71.4692 113.804 71.3831 113.585 71.3831H107.548C107.33 71.3831 107.12 71.4692 106.966 71.6225C106.812 71.7758 106.725 71.9838 106.725 72.2006V101.112C106.722 101.327 106.633 101.531 106.479 101.682C106.325 101.832 106.118 101.917 105.902 101.917H99.8513C99.6353 101.917 99.4278 101.832 99.2738 101.682C99.1198 101.531 99.0315 101.327 99.0281 101.112V72.2006C99.0281 71.9838 98.9414 71.7758 98.787 71.6225C98.6326 71.4692 98.4232 71.3831 98.2048 71.3831H92.1676C91.9492 71.3831 91.7398 71.4692 91.5854 71.6225C91.431 71.7758 91.3443 71.9838 91.3443 72.2006V101.112C91.3409 101.327 91.2526 101.531 91.0986 101.682C90.9446 101.832 90.7371 101.917 90.521 101.917H84.4838C84.3757 101.918 84.2683 101.899 84.1677 101.859C84.0672 101.82 83.9755 101.761 83.8978 101.686C83.8202 101.612 83.758 101.522 83.7151 101.424C83.6721 101.325 83.6492 101.219 83.6475 101.112V64.5704C83.6509 64.3524 83.7406 64.1445 83.897 63.9916C84.0535 63.8386 84.2642 63.7529 84.4838 63.7529H121.269C121.489 63.7529 121.7 63.8386 121.856 63.9916C122.012 64.1445 122.102 64.3524 122.105 64.5704Z" fill="white"/>
<path d="M159.126 59.938L165.843 58.1084C165.901 58.0923 165.962 58.0899 166.022 58.1013C166.081 58.1127 166.137 58.1376 166.185 58.174C166.233 58.2105 166.272 58.2575 166.299 58.3113C166.326 58.3652 166.34 58.4246 166.339 58.4846V61.3395C166.341 61.3911 166.332 61.4425 166.313 61.4905C166.294 61.5386 166.265 61.5822 166.229 61.6187C166.192 61.6552 166.148 61.6838 166.1 61.7028C166.051 61.7217 165.999 61.7306 165.947 61.7287H158.891C158.891 61.7287 158.643 61.7287 158.643 61.4562V60.3921C158.643 60.0807 159.139 59.938 159.139 59.938" fill="white"/>
<path d="M90.2988 121.303C91.292 121.303 91.9454 121.083 91.9454 120.135V119.876C91.9454 118.955 91.3181 118.682 90.4687 118.682H85.9735V121.277L90.2988 121.303ZM90.3772 116.904C91.2136 116.904 91.8277 116.71 91.8277 115.788V115.49C91.8277 114.543 91.2136 114.296 90.1943 114.296H85.9735V116.891L90.3772 116.904ZM83.7781 122.99V112.609C83.7718 112.556 83.7776 112.503 83.795 112.453C83.8125 112.403 83.8412 112.357 83.8789 112.32C83.9167 112.282 83.9625 112.254 84.0129 112.237C84.0634 112.219 84.1171 112.213 84.1701 112.22H90.338C93.0299 112.22 94.0884 113.258 94.1277 115.295V115.49C94.1714 115.943 94.0854 116.398 93.8797 116.805C93.6739 117.211 93.3567 117.552 92.9646 117.787C93.3938 118.031 93.7445 118.391 93.9758 118.825C94.2071 119.259 94.3096 119.749 94.2714 120.239V120.382C94.2714 122.406 93.1998 123.405 90.5079 123.405H84.2354C84.1818 123.41 84.1278 123.402 84.0774 123.383C84.0271 123.364 83.9816 123.334 83.9442 123.296C83.9067 123.257 83.8782 123.211 83.8608 123.161C83.8434 123.11 83.8375 123.056 83.8434 123.003" fill="#F93549"/>
<path d="M98.3748 122.99V112.609C98.3685 112.556 98.3743 112.503 98.3918 112.453C98.4092 112.403 98.4379 112.357 98.4757 112.32C98.5134 112.282 98.5592 112.254 98.6097 112.237C98.6601 112.219 98.7138 112.213 98.7668 112.22H107.47C107.523 112.213 107.577 112.219 107.627 112.237C107.677 112.254 107.723 112.282 107.761 112.32C107.799 112.357 107.827 112.403 107.845 112.453C107.862 112.503 107.868 112.556 107.862 112.609V113.907C107.87 113.96 107.866 114.015 107.85 114.067C107.833 114.119 107.805 114.166 107.767 114.205C107.729 114.244 107.682 114.274 107.631 114.292C107.579 114.31 107.524 114.316 107.47 114.309H100.57V116.787H105.039C105.093 116.783 105.147 116.791 105.197 116.81C105.248 116.829 105.293 116.859 105.331 116.897C105.368 116.935 105.396 116.982 105.414 117.032C105.431 117.083 105.437 117.137 105.431 117.19V118.345C105.438 118.397 105.432 118.451 105.414 118.501C105.397 118.551 105.368 118.596 105.33 118.634C105.293 118.671 105.247 118.7 105.196 118.717C105.146 118.734 105.092 118.74 105.039 118.734H100.57V121.329H107.47C107.523 121.323 107.577 121.329 107.627 121.346C107.677 121.363 107.723 121.392 107.761 121.429C107.799 121.467 107.827 121.512 107.845 121.562C107.862 121.613 107.868 121.666 107.862 121.718V123.016C107.87 123.07 107.866 123.125 107.85 123.176C107.833 123.228 107.805 123.275 107.767 123.314C107.729 123.353 107.682 123.383 107.631 123.401C107.579 123.419 107.524 123.425 107.47 123.418H98.7799C98.7262 123.423 98.6722 123.415 98.6219 123.396C98.5715 123.377 98.526 123.347 98.4886 123.309C98.4512 123.27 98.4227 123.224 98.4052 123.174C98.3878 123.123 98.3819 123.069 98.3879 123.016" fill="#F93549"/>
<path d="M119.884 119.656L117.506 114.465L115.101 119.656H119.884ZM121.452 123.094L120.707 121.459H114.278L113.52 123.094C113.476 123.184 113.407 123.26 113.321 123.313C113.236 123.365 113.137 123.393 113.036 123.393H111.429C111.129 123.393 110.998 123.198 111.129 122.926L116.186 112.544C116.222 112.453 116.288 112.375 116.373 112.323C116.458 112.272 116.557 112.249 116.656 112.259H118.381C118.478 112.252 118.575 112.276 118.657 112.328C118.739 112.379 118.803 112.455 118.839 112.544L123.883 122.926C124.013 123.198 123.883 123.393 123.582 123.393H121.975C121.873 123.396 121.773 123.37 121.687 123.317C121.601 123.264 121.533 123.186 121.491 123.094" fill="#F93549"/>
<path d="M127.267 119.552V112.622C127.261 112.57 127.267 112.516 127.284 112.466C127.302 112.416 127.33 112.371 127.368 112.333C127.406 112.296 127.452 112.267 127.502 112.25C127.552 112.232 127.606 112.227 127.659 112.233H129.07C129.124 112.227 129.178 112.233 129.229 112.25C129.28 112.268 129.327 112.296 129.365 112.333C129.404 112.37 129.434 112.415 129.453 112.465C129.472 112.515 129.48 112.569 129.476 112.622V119.629C129.476 120.927 129.972 121.29 131.031 121.29H134.611C135.683 121.29 136.153 120.992 136.153 119.629V112.622C136.149 112.569 136.157 112.515 136.176 112.465C136.195 112.415 136.225 112.37 136.263 112.333C136.302 112.296 136.349 112.268 136.4 112.25C136.451 112.233 136.505 112.227 136.558 112.233H137.983C138.036 112.227 138.09 112.233 138.141 112.25C138.192 112.268 138.239 112.296 138.277 112.333C138.316 112.37 138.346 112.415 138.365 112.465C138.384 112.515 138.392 112.569 138.388 112.622V119.552C138.388 121.9 137.238 123.445 134.611 123.445H131.031C128.417 123.445 127.267 121.952 127.267 119.552Z" fill="#F93549"/>
<path d="M146.006 122.99V114.348H142.57C142.516 114.354 142.462 114.348 142.411 114.331C142.36 114.313 142.313 114.285 142.275 114.248C142.236 114.211 142.206 114.166 142.187 114.116C142.168 114.066 142.16 114.012 142.164 113.959V112.661C142.16 112.608 142.168 112.554 142.187 112.504C142.206 112.454 142.236 112.409 142.275 112.372C142.313 112.335 142.36 112.306 142.411 112.289C142.462 112.272 142.516 112.266 142.57 112.272H151.717C151.77 112.266 151.825 112.272 151.876 112.289C151.926 112.306 151.973 112.335 152.012 112.372C152.05 112.409 152.08 112.454 152.099 112.504C152.118 112.554 152.126 112.608 152.122 112.661V113.959C152.126 114.012 152.118 114.066 152.099 114.116C152.08 114.166 152.05 114.211 152.012 114.248C151.973 114.285 151.926 114.313 151.876 114.331C151.825 114.348 151.77 114.354 151.717 114.348H148.28V122.99C148.286 123.043 148.28 123.097 148.263 123.148C148.245 123.198 148.217 123.245 148.179 123.283C148.142 123.321 148.096 123.351 148.046 123.37C147.996 123.389 147.942 123.397 147.888 123.393H146.464C146.41 123.397 146.356 123.389 146.306 123.37C146.255 123.351 146.21 123.321 146.172 123.283C146.135 123.245 146.107 123.198 146.089 123.148C146.072 123.097 146.066 123.043 146.072 122.99" fill="#F93549"/>
<path d="M159.649 122.99V120.304L154.748 112.7C154.579 112.44 154.748 112.233 155.023 112.233H156.669C156.765 112.231 156.86 112.255 156.943 112.303C157.026 112.351 157.094 112.421 157.14 112.505L160.773 118.254L164.366 112.505C164.412 112.421 164.48 112.351 164.563 112.303C164.646 112.255 164.74 112.231 164.837 112.233H166.47C166.784 112.233 166.914 112.44 166.731 112.7L161.87 120.304V122.99C161.877 123.044 161.87 123.099 161.852 123.151C161.834 123.203 161.804 123.25 161.765 123.288C161.727 123.327 161.679 123.356 161.627 123.374C161.575 123.392 161.52 123.398 161.465 123.392H160.054C159.999 123.398 159.944 123.392 159.892 123.374C159.84 123.356 159.792 123.327 159.754 123.288C159.715 123.25 159.685 123.203 159.667 123.151C159.649 123.099 159.642 123.044 159.649 122.99Z" fill="#F93549"/>
</g>
<defs>
<clipPath id="clip0_539_3049">
<rect width="250" height="143" fill="white"/>
</clipPath>
</defs>
</svg>
